<?xml version="1.0" standalone="no"?>
<!DOCTYPE svg PUBLIC "-//W3C//DTD SVG 20010904//EN"
 "http://www.w3.org/TR/2001/REC-SVG-20010904/DTD/svg10.dtd">
<svg version="1.0" xmlns="http://www.w3.org/2000/svg"
 width="403.000000pt" height="405.000000pt" viewBox="0 0 403.000000 405.000000"
 preserveAspectRatio="xMidYMid meet">

<g transform="translate(0.000000,405.000000) scale(0.100000,-0.100000)"
fill="#000000" stroke="none">
<path d="M1840 3810 c-226 -24 -429 -84 -645 -191 -297 -147 -533 -356 -718
-635 -143 -216 -233 -439 -283 -699 -22 -109 -30 -437 -15 -562 109 -891 844
-1585 1731 -1632 770 -41 1450 345 1789 1017 268 530 268 1151 -2 1685 -114
225 -236 385 -426 554 -129 115 -240 190 -408 274 -180 92 -373 153 -558 179
-111 15 -363 21 -465 10z m-90 -1215 c16 -32 25 -67 25 -100 0 -47 -1 -50 -28
-53 -21 -3 -33 -14 -51 -50 -35 -70 -100 -226 -134 -322 -62 -178 -165 -447
-190 -495 -114 -227 -246 -339 -415 -352 -59 -5 -81 -2 -113 13 -86 40 -179
166 -198 267 -5 27 -2 45 11 68 21 35 96 86 140 95 l31 6 -5 -39 c-9 -70 46
-232 97 -283 22 -22 48 -18 102 18 51 33 102 102 147 197 70 146 323 825 312
837 -3 3 -46 0 -96 -8 -184 -30 -319 -80 -345 -130 -10 -18 -16 -21 -27 -13
-24 21 -73 136 -73 173 0 34 4 39 44 57 74 32 142 40 349 40 l198 0 57 48
c119 98 126 99 162 26z m1416 -10 c19 -8 48 -23 63 -34 l27 -20 -46 -93 c-62
-127 -270 -692 -258 -703 2 -2 30 40 62 93 107 175 222 312 261 312 24 0 101
-47 129 -78 18 -20 17 -22 -14 -88 -74 -156 -170 -436 -170 -494 0 -39 158
184 220 309 23 46 35 60 40 50 35 -62 -154 -488 -241 -542 -9 -5 -27 -7 -41
-4 -35 9 -118 67 -141 99 -19 25 -19 29 -4 120 9 51 32 140 51 198 19 57 34
106 32 108 -13 12 -257 -441 -285 -530 -7 -21 -18 -38 -25 -38 -17 0 -95 79
-113 114 -15 29 -14 62 4 171 l6 40 -60 -75 c-75 -94 -183 -194 -259 -240 -53
-32 -65 -35 -134 -35 -66 0 -82 4 -138 34 -198 107 -252 327 -156 633 89 283
283 556 456 642 90 46 139 47 225 7 109 -52 183 -137 183 -210 0 -71 -89 -233
-186 -340 -51 -57 -131 -114 -145 -105 -5 3 3 23 17 45 61 97 140 312 151 408
7 76 -5 95 -56 86 -122 -23 -266 -179 -382 -415 -94 -189 -136 -353 -127 -492
6 -89 28 -135 73 -154 104 -43 214 21 463 268 l123 122 25 86 c85 286 239 689
286 748 14 16 41 15 84 -3z"/>
</g>
</svg>
